# xmcd
#
# Track frame offsets: 
#        150
#        20574
#        42112
#        68577
#        93309
#        119384
#        137986
#        154998
#        183000
#        205940
#        227048
#
# Disc length: 3277 seconds
#
# Revision: 0
# Processed by: cddbd v1.5.2PL0 Copyright (c) Steve Scherf et al.
# Submitted via: ExactAudioCopy v0.99pb4
#
DISCID=8f0ccb0b
DTITLE=Dozie - Redemption
DYEAR=2002
DGENRE=R&B
TTITLE0=Uwake
TTITLE1=Gabriel's Lounge
TTITLE2=Soldier
TTITLE3=Sensuality
TTITLE4=Onwu Obi
TTITLE5=Redemption
TTITLE6=Nowhere
TTITLE7=Home
TTITLE8=Heaven Knows
TTITLE9=Magdalena
TTITLE10=Tar
EXTD=
EXTT0=
EXTT1=
EXTT2=
EXTT3=
EXTT4=
EXTT5=
EXTT6=
EXTT7=
EXTT8=
EXTT9=
EXTT10=
PLAYORDER=
